<?xml version="1.0" encoding="utf-8"?>
<!-- Generator: Adobe Illustrator 21.0.0, SVG Export Plug-In . SVG Version: 6.00 Build 0)  -->
<svg version="1.1" id="Layer_1" xmlns="http://www.w3.org/2000/svg" xmlns:xlink="http://www.w3.org/1999/xlink" x="0px" y="0px"
	 width="220px" height="75px" viewBox="0 0 220 75" enable-background="new 0 0 220 75" xml:space="preserve">
<symbol  id="logo_x5F_Allo_x5F_slogan_x5F_220x75" viewBox="-110 -37.5 220 75">
	<g id="logo_x5F_Allo_x5F_slogan_x5F_220x75_2_">
		<rect x="-110" y="-37.5" fill="none" width="220" height="75"/>
		<path fill="#E31837" d="M41.981,31.497c-11.052,0.015-20.055-8.943-20.07-19.967C21.897,0.505,30.877-8.476,41.929-8.49
			C52.982-8.505,61.986,0.453,62,11.477C62.014,22.501,53.034,31.482,41.981,31.497z M41.939-0.994
			C35.018-0.985,29.395,4.628,29.404,11.52c0.009,6.891,5.647,12.49,12.568,12.481c6.921-0.009,12.545-5.623,12.536-12.514
			C54.498,4.596,48.86-1.003,41.939-0.994z M41.956,17.501c-3.321,0-6.013-2.685-6.013-5.998c0-3.313,2.692-5.998,6.013-5.998
			c3.321,0,6.013,2.685,6.013,5.998C47.969,14.816,45.277,17.501,41.956,17.501z M-31.509-8.49c0.395,0,0.797,0.059,1.194,0.186
			c2.05,0.655,3.181,2.845,2.525,4.893c-0.081,0.253-8.117,25.332-8.464,26.373c-0.023,0.069-0.048,0.138-0.074,0.205
			c-1.835,4.981-6.625,8.323-11.964,8.329c-5.384,0.007-10.219-3.379-12.033-8.425c-0.011-0.031-0.022-0.062-0.032-0.093
			c-0.337-1.018-8.193-25.303-8.528-26.336c-0.662-2.046,0.463-4.239,2.512-4.9c2.048-0.661,4.246,0.462,4.907,2.507
			c2.783,8.603,8.074,24.953,8.495,26.235c0.715,1.935,2.586,3.23,4.669,3.227c2.097-0.003,3.976-1.322,4.674-3.281
			c0.001-0.005,0.003-0.01,0.005-0.014c0.514-1.577,5.835-18.172,8.407-26.201C-34.686-7.435-33.157-8.488-31.509-8.49
			 M14.749-8.503c0.395,0,0.797,0.059,1.194,0.186c2.05,0.655,3.181,2.845,2.525,4.893c-0.081,0.253-8.117,25.332-8.464,26.373
			c-0.022,0.069-0.048,0.138-0.075,0.205c-1.835,4.981-6.625,8.323-11.963,8.329c-5.384,0.007-10.219-3.379-12.033-8.425
			c-0.011-0.031-0.022-0.062-0.032-0.093c-0.337-1.018-8.194-25.303-8.527-26.336c-0.662-2.046,0.462-4.239,2.511-4.899
			c2.048-0.661,4.246,0.461,4.908,2.507c2.783,8.603,8.074,24.953,8.494,26.235c0.716,1.935,2.586,3.23,4.669,3.228
			c2.097-0.003,3.975-1.322,4.674-3.282c0.001-0.005,0.003-0.01,0.005-0.014c0.514-1.577,5.835-18.172,8.407-26.201
			C11.571-7.448,13.101-8.501,14.749-8.503 M-76.241,25.217c-2.569,4.801-7.925,6.912-13.326,6.115
			c-0.032-0.005-0.064-0.01-0.097-0.015c-1.139-0.197-13.544-1.854-16.019-2.301c-2.15-0.388-3.579-2.442-3.191-4.589
			c0.389-2.147,2.446-3.572,4.597-3.185c6.702,1.208,14.804,2.088,15.909,2.281c2.09,0.291,4.154-0.175,5.147-2.029
			c0.393-0.733,0.591-1.521,0.59-2.34l-0.002-1.703c-2.546-0.41-6.104-0.982-9.042-1.455l-5.315-0.855
			c-6.75-1.086-12.998-3.411-13.01-12.986c-0.009-6.966,5.659-10.618,11.264-10.625c1.191-0.002,1.852-0.002,2.215-0.002
			c0.088,0,0.174,0.002,0.259,0.005c0.032-0.001,0.064-0.002,0.097-0.002v0.007c0.014,0.001,0.028,0.002,0.042,0.002v-0.009
			l14.339-0.019c0.082-0.004,0.166-0.005,0.249-0.003c3.739,0.069,6.786,3.16,6.791,6.891l0.021,15.602
			c0.001,0.048,0.001,0.096,0,0.144l0.007,4.997C-74.716,21.252-75.243,23.351-76.241,25.217z M-82.666-0.067
			c0-0.32-0.261-0.581-0.582-0.581h-15.244c-1.978,0-3.588,1.605-3.588,3.579c0,1.771,1.325,3.593,3.083,3.843l16.332,2.573V-0.067z
			"/>
		<path fill="#E31837" d="M-108.71-19.665h8.021v-9.67h-1.13v8.661h-5.762v-8.661h-1.13V-19.665z M-97.856-19.665h3.746
			c2.259,0,3.746-1.16,3.746-3.067v-0.027c0-2.086-1.802-3.164-3.932-3.164h-2.431v-3.412h-1.13V-19.665z M-94.253-24.928
			c1.658,0,2.745,0.856,2.745,2.127v0.028c0,1.381-1.072,2.099-2.688,2.099h-2.53v-4.254H-94.253z M-88.746-24.528v0.027
			c0,2.666,2.072,5,5.118,5c3.045,0,5.09-2.307,5.09-4.972V-24.5c0-2.665-2.073-5-5.118-5C-86.702-29.5-88.746-27.193-88.746-24.528
			z M-79.711-24.528v0.027c0,2.196-1.658,3.993-3.945,3.993c-2.288,0-3.918-1.768-3.918-3.965V-24.5
			c0-2.195,1.658-3.992,3.946-3.992C-81.341-28.492-79.711-26.724-79.711-24.528z M-76.592-24.528v0.027c0,2.735,2.13,5,5.061,5
			c1.816,0,2.917-0.608,3.903-1.533l-0.771-0.801c-0.858,0.774-1.773,1.327-3.146,1.327c-2.217,0-3.875-1.741-3.875-3.965V-24.5
			c0-2.237,1.658-3.992,3.875-3.992c1.372,0,2.273,0.511,3.23,1.395l0.744-0.705c-1.029-1.022-2.202-1.698-4.004-1.698
			C-74.462-29.5-76.592-27.305-76.592-24.528z M-62.937-20.674h-3.374v1.009h7.878v-1.009h-3.374v-8.661h-1.13V-20.674z
			 M-57.458-24.528v0.027c0,2.666,2.072,5,5.118,5c3.045,0,5.09-2.307,5.09-4.972V-24.5c0-2.665-2.073-5-5.118-5
			C-55.414-29.5-57.458-27.193-57.458-24.528z M-48.423-24.528v0.027c0,2.196-1.658,3.993-3.945,3.993
			c-2.288,0-3.918-1.768-3.918-3.965V-24.5c0-2.195,1.658-3.992,3.946-3.992C-50.053-28.492-48.423-26.724-48.423-24.528z
			 M-40.156-19.665l3.932-4.241h1.259v4.241h1.129l-0.014-4.241h1.272l3.932,4.241h1.387l-4.375-4.669l4.504-5h-1.373l-4.032,4.462
			h-1.314l0.014-4.462h-1.129v4.462h-1.373l-3.989-4.462h-1.358l4.504,5l-4.36,4.669H-40.156z M-18.078-29.335v7.971l-6.405-7.971
			h-0.93v9.67h1.13v-7.791l6.263,7.791h1.072v-9.67H-18.078z M-11.514-20.674h-3.374v1.009h7.878v-1.009h-3.374v-8.661h-1.13
			V-20.674z M2.385-29.335v7.971l-6.405-7.971h-0.93v9.67h1.13v-7.791l6.263,7.791h1.072v-9.67H2.385z M10.194-24.528v0.027
			c0,2.735,2.13,5,5.061,5c1.816,0,2.917-0.608,3.903-1.533l-0.771-0.801c-0.858,0.774-1.773,1.327-3.146,1.327
			c-2.217,0-3.875-1.741-3.875-3.965V-24.5c0-2.237,1.658-3.992,3.875-3.992c1.372,0,2.273,0.511,3.23,1.395l0.744-0.705
			c-1.029-1.022-2.202-1.698-4.004-1.698C12.324-29.5,10.194-27.305,10.194-24.528z M21.247-19.665h1.145l3.646-5.277l3.646,5.277
			h1.145v-9.67h-1.13v7.832l-3.646-5.18h-0.058l-3.646,5.167v-7.819h-1.102V-19.665z M37.362-19.596h1.059l4.561-9.739h-1.215
			l-1.173,2.556h-5.447l-1.187-2.556h-1.158L37.362-19.596z M40.15-25.799l-2.273,4.932l-2.287-4.932H40.15z M44.956-19.665h3.746
			c2.259,0,3.746-1.16,3.746-3.067v-0.027c0-2.086-1.802-3.164-3.932-3.164h-2.431v-3.412h-1.13V-19.665z M48.56-24.928
			c1.658,0,2.745,0.856,2.745,2.127v0.028c0,1.381-1.072,2.099-2.688,2.099h-2.53v-4.254H48.56z M57.111-20.674h-3.374v1.009h7.878
			v-1.009h-3.374v-8.661h-1.13V-20.674z"/>
	</g>
</symbol>
<use xlink:href="#logo_x5F_Allo_x5F_slogan_x5F_220x75"  width="220" height="75" x="-110" y="-37.5" transform="matrix(1 0 0 -1 110 37.5)" overflow="visible"/>
</svg>
