<svg xmlns="http://www.w3.org/2000/svg" width="1201" height="200" viewBox="0 0 1201 200" class="header-logo__svg-exchange"><g fill="black" fill-rule="evenodd"><path d="M749.216 49.318H771v97.268h-21.784v-10.115c-4.085 5.252-14.783 11.283-27.815 11.283-27.814 0-48.82-20.621-48.82-49.802 0-29.18 21.006-49.801 48.82-49.801 12.838 0 23.73 6.03 27.815 11.283V49.318zm.778 48.634c0-15.952-12.06-29.18-27.815-29.18-16.143 0-28.592 13.228-28.592 29.18s12.449 29.18 28.592 29.18c15.755 0 27.815-13.228 27.815-29.18zM21.395 146.586H0V12.394L21.395.197v59.237c6.03-6.614 16.533-11.283 28.593-11.283 28.98 0 48.237 19.454 48.237 49.801 0 30.348-19.256 49.802-48.237 49.802-12.838 0-22.368-5.253-28.593-11.283v10.115zm-.389-48.634c0 16.73 11.087 29.18 28.01 29.18 16.921 0 28.202-12.45 28.202-29.18s-11.281-29.18-28.203-29.18c-16.922 0-28.009 12.45-28.009 29.18zm95.482 48.634V49.318h21.396v97.268h-21.396zm-3.695-122.752c0-8.17 6.418-14.59 14.393-14.59 7.975 0 14.393 6.42 14.393 14.59s-6.418 14.59-14.393 14.59c-7.975 0-14.393-6.42-14.393-14.59zm51.787 80.343V12.394L186.365 0v49.318h21.784V69.94h-21.784v34.238c0 11.867 9.92 21.789 21.784 21.789v21.788c-23.924 0-43.569-19.454-43.569-43.577zm65.267-54.859h21.396v10.116c6.224-6.03 15.755-11.283 28.592-11.283 28.981 0 48.237 19.454 48.237 49.801 0 30.348-19.256 49.802-48.237 49.802-12.06 0-22.563-4.67-28.592-11.283v51.023L229.847 200V49.318zm21.007 48.634c0 16.73 11.086 29.18 28.008 29.18 16.922 0 28.204-12.45 28.204-29.18s-11.282-29.18-28.204-29.18-28.008 12.45-28.008 29.18zm165.74-48.634h21.784v97.268h-21.785v-10.115c-4.084 5.252-14.782 11.283-27.814 11.283-27.814 0-48.82-20.621-48.82-49.802 0-29.18 21.006-49.801 48.82-49.801 12.837 0 23.73 6.03 27.814 11.283V49.318zm.777 48.634c0-15.952-12.059-29.18-27.814-29.18-16.144 0-28.592 13.228-28.592 29.18s12.448 29.18 28.592 29.18c15.755 0 27.814-13.228 27.814-29.18zm43.647 48.634V49.318h21.396v11.089c4.473-5.836 13.226-12.256 26.647-12.256 24.119 0 37.345 14.201 37.345 40.074v58.361H525.01V92.894c0-17.119-7.196-24.511-21.2-24.511-14.005 0-21.396 10.116-21.396 24.511v53.692h-21.396zm196.688 0H636.31v-10.115c-6.224 6.03-15.754 11.283-28.592 11.283-28.98 0-48.237-19.454-48.237-49.802 0-30.347 19.256-49.801 48.237-49.801 12.06 0 22.563 4.669 28.592 11.283v-47.04L657.706.124v146.462zm-21.007-48.634c0-16.73-11.086-29.18-28.008-29.18-16.922 0-28.203 12.45-28.203 29.18s11.28 29.18 28.203 29.18c16.922 0 28.008-12.45 28.008-29.18z"></path><path fill-rule="nonzero" d="M869.96 37.747V65.79h-5.144l-.258-7.494c-1.658 2.694-3.987 4.758-6.988 6.19-3.002 1.43-6.618 2.147-10.848 2.147-5.317 0-9.947-1.165-13.892-3.495-3.945-2.33-6.989-5.642-9.133-9.937-2.144-4.295-3.216-9.361-3.216-15.2 0-5.782 1.101-10.835 3.302-15.158 2.201-4.323 5.288-7.649 9.261-9.979 3.973-2.33 8.59-3.495 13.85-3.495 5.602 0 10.218 1.039 13.848 3.116 3.63 2.077 6.56 5.277 8.79 9.6l-6.26 3.369c-1.258-3.144-3.301-5.558-6.131-7.242-2.83-1.685-6.246-2.527-10.248-2.527-3.83 0-7.189.898-10.076 2.695-2.887 1.796-5.13 4.365-6.731 7.705-1.6 3.34-2.401 7.312-2.401 11.916 0 7.074 1.658 12.561 4.973 16.463 3.316 3.902 8.09 5.853 14.321 5.853 4.917 0 8.933-1.235 12.048-3.705 3.116-2.47 4.674-6.007 4.674-10.611v-1.937h-18.008v-6.316h24.268zm19.66 16.758c0 2.134.328 3.607.986 4.421.657.814 1.872 1.221 3.644 1.221 1.2 0 2.244-.084 3.13-.252.886-.169 1.93-.477 3.13-.927l-1.115 6.485c-1.886.786-4.001 1.179-6.345 1.179-3.488 0-6.074-.927-7.76-2.78-1.687-1.852-2.53-4.687-2.53-8.505V4.316h6.86v50.19zm36.209-31.663c6.46 0 11.533 1.937 15.22 5.81 3.688 3.874 5.532 9.236 5.532 16.085s-1.844 12.21-5.531 16.084c-3.688 3.874-8.761 5.81-15.221 5.81-6.46 0-11.534-1.936-15.221-5.81-3.688-3.874-5.532-9.235-5.532-16.084 0-6.85 1.844-12.21 5.532-16.084 3.687-3.874 8.76-5.81 15.22-5.81zm0 5.81c-4.345 0-7.747 1.432-10.205 4.295-2.458 2.864-3.687 6.793-3.687 11.79 0 4.996 1.229 8.926 3.687 11.79 2.458 2.862 5.86 4.294 10.205 4.294 4.344 0 7.746-1.432 10.204-4.295s3.688-6.793 3.688-11.79c0-4.996-1.23-8.925-3.688-11.789-2.458-2.863-5.86-4.294-10.204-4.294zm53.53-5.81c6.003 0 10.763 1.951 14.279 5.853 3.515 3.902 5.273 9.249 5.273 16.042 0 6.793-1.758 12.14-5.273 16.042-3.516 3.902-8.276 5.853-14.278 5.853-3.316 0-6.274-.744-8.876-2.232-2.6-1.488-4.53-3.467-5.788-5.937l-.429 7.326h-6.002V4.316h6.86v25.937c1.372-2.246 3.301-4.042 5.788-5.39 2.487-1.347 5.302-2.02 8.447-2.02zm-.771 37.895c4.173 0 7.46-1.446 9.862-4.337 2.4-2.891 3.601-6.779 3.601-11.663s-1.2-8.772-3.601-11.663c-2.402-2.892-5.689-4.337-9.862-4.337-4.116 0-7.389 1.403-9.819 4.21-2.43 2.807-3.644 6.569-3.644 11.285v1.01c0 4.716 1.215 8.477 3.644 11.284 2.43 2.807 5.703 4.21 9.819 4.21zm67.251.168c1.144 0 2.287-.14 3.43-.42l-.428 5.304c-1.6.562-3.316.843-5.145.843-2.23 0-3.988-.478-5.274-1.432s-2.101-2.554-2.444-4.8c-1.315 1.965-3.244 3.495-5.788 4.59a20.073 20.073 0 0 1-8.018 1.642c-4.23 0-7.718-.969-10.462-2.906-2.744-1.937-4.116-4.73-4.116-8.379 0-3.2 1.429-5.965 4.287-8.294 2.859-2.33 7.004-3.944 12.435-4.842l11.405-1.853V38c0-2.807-.886-5.053-2.659-6.737-1.772-1.684-4.23-2.526-7.374-2.526-2.859 0-5.331.674-7.418 2.02-2.087 1.348-3.702 3.341-4.845 5.98l-5.06-3.621c1.144-3.144 3.273-5.642 6.39-7.495 3.115-1.853 6.76-2.779 10.933-2.779 5.088 0 9.175 1.207 12.262 3.621 3.087 2.414 4.63 5.98 4.63 10.695v20.716c0 1.01.258 1.768.773 2.273.514.506 1.343.758 2.486.758zm-23.324-.168c3.601 0 6.703-.842 9.304-2.526 2.601-1.685 3.902-3.874 3.902-6.569v-5.81l-9.605 1.768c-3.83.674-6.688 1.642-8.575 2.905-1.886 1.263-2.83 2.877-2.83 4.842 0 1.74.686 3.074 2.058 4 1.372.927 3.288 1.39 5.746 1.39zm41.611-6.232c0 2.134.329 3.607.986 4.421.658.814 1.873 1.221 3.645 1.221 1.2 0 2.244-.084 3.13-.252.886-.169 1.93-.477 3.13-.927l-1.115 6.485c-1.887.786-4.002 1.179-6.346 1.179-3.487 0-6.074-.927-7.76-2.78-1.687-1.852-2.53-4.687-2.53-8.505V4.316h6.86v50.19zm-199.225 86.548v6.315h-40.99V91.79h39.704v6.316h-32.843v17.937h25.554v6.316h-25.554v18.695h34.13zm37.324 6.315l-11.834-16.252-12.177 16.252h-7.975l16.465-21.22-15.435-20.885h8.575l11.32 15.58 11.147-15.58h8.06l-15.52 20.632 15.778 21.473h-8.404zm33.98-42.947c4.287 0 7.903.968 10.847 2.905 2.945 1.937 5.246 4.702 6.904 8.295l-6.518 3.032c-1.83-5.558-5.63-8.337-11.405-8.337-4.287 0-7.646 1.417-10.076 4.252-2.43 2.836-3.644 6.751-3.644 11.748 0 4.996 1.215 8.912 3.644 11.747 2.43 2.835 5.789 4.253 10.076 4.253 3.316 0 5.989-.744 8.018-2.232 2.03-1.488 3.359-3.635 3.988-6.442l6.345 2.19c-1.486 3.93-3.773 6.975-6.86 9.136-3.087 2.162-6.86 3.243-11.32 3.243-6.46 0-11.533-1.937-15.22-5.811-3.688-3.874-5.531-9.235-5.531-16.084 0-6.85 1.843-12.21 5.53-16.084 3.688-3.874 8.762-5.81 15.222-5.81zm49.5 0c4.86 0 8.862 1.375 12.006 4.126 3.144 2.751 4.716 6.71 4.716 11.874v26.947h-6.86v-24.59c0-4.378-.958-7.55-2.873-9.515-1.915-1.965-4.473-2.947-7.675-2.947-2.23 0-4.359.505-6.388 1.516-2.03 1.01-3.688 2.624-4.974 4.842-1.286 2.217-1.93 5.01-1.93 8.379v22.315h-6.86V85.895h6.86v25.684c1.43-2.414 3.36-4.21 5.79-5.39 2.429-1.178 5.158-1.768 8.188-1.768zm65.794 38.063c1.144 0 2.287-.14 3.43-.42l-.428 5.304c-1.601.562-3.316.843-5.146.843-2.23 0-3.987-.478-5.273-1.432-1.287-.954-2.101-2.554-2.444-4.8-1.315 1.965-3.245 3.495-5.789 4.59a20.073 20.073 0 0 1-8.018 1.642c-4.23 0-7.717-.969-10.461-2.906-2.744-1.937-4.117-4.73-4.117-8.379 0-3.2 1.43-5.965 4.288-8.294 2.859-2.33 7.003-3.944 12.434-4.843l11.405-1.852v-2.358c0-2.807-.886-5.053-2.658-6.737-1.772-1.684-4.23-2.526-7.375-2.526-2.858 0-5.33.673-7.417 2.02-2.087 1.348-3.702 3.341-4.845 5.98l-5.06-3.621c1.144-3.144 3.273-5.642 6.389-7.495 3.116-1.853 6.76-2.779 10.933-2.779 5.088 0 9.176 1.207 12.263 3.621 3.087 2.414 4.63 5.979 4.63 10.695v20.716c0 1.01.258 1.768.772 2.273.515.506 1.344.758 2.487.758zm-23.325-.168c3.602 0 6.703-.842 9.305-2.527 2.6-1.684 3.901-3.873 3.901-6.568v-5.81l-9.604 1.768c-3.83.674-6.689 1.642-8.575 2.905-1.887 1.263-2.83 2.877-2.83 4.842 0 1.74.686 3.074 2.058 4 1.372.927 3.287 1.39 5.745 1.39zm55.933-37.895c4.859 0 8.86 1.375 12.005 4.126 3.144 2.751 4.716 6.71 4.716 11.874v26.947h-6.86v-24.59c0-4.378-.957-7.55-2.873-9.515-1.915-1.965-4.473-2.947-7.674-2.947-2.287 0-4.43.491-6.432 1.473-2 .983-3.644 2.583-4.93 4.8-1.287 2.218-1.93 5.011-1.93 8.38v22.4h-6.86v-42.106h6.002l.43 6.569c1.428-2.527 3.4-4.393 5.916-5.6 2.516-1.207 5.345-1.81 8.49-1.81zm54.56 37.558c4.059 0 7.232.898 9.518 2.695 2.287 1.796 3.43 4.238 3.43 7.326 0 2.695-.943 5.067-2.83 7.116-1.886 2.049-4.444 3.62-7.674 4.716-3.23 1.094-6.789 1.642-10.677 1.642-6.517 0-11.433-1.025-14.749-3.074-3.316-2.05-4.974-4.73-4.974-8.042 0-1.909.672-3.593 2.016-5.053 1.343-1.46 3.187-2.498 5.53-3.116-1.772-.842-3.187-1.908-4.244-3.2-1.058-1.29-1.587-2.807-1.587-4.547 0-2.077.572-3.803 1.715-5.179 1.144-1.375 2.716-2.4 4.717-3.074-2.058-1.235-3.616-2.849-4.674-4.842-1.057-1.993-1.586-4.224-1.586-6.694 0-2.751.743-5.207 2.23-7.369 1.486-2.161 3.573-3.845 6.26-5.052 2.686-1.207 5.716-1.81 9.09-1.81 3.2 0 6.116.56 8.746 1.683 1.6-5.726 5.631-8.59 12.091-8.59l1.544 5.896c-5.603 0-9.004 1.543-10.205 4.631 1.715 1.291 3.044 2.835 3.988 4.632.943 1.796 1.415 3.79 1.415 5.979 0 2.75-.744 5.207-2.23 7.368-1.486 2.161-3.573 3.846-6.26 5.053-2.687 1.207-5.717 1.81-9.09 1.81-2.515 0-4.716-.252-6.603-.758-1.715.393-2.944 1.01-3.687 1.853-.743.842-1.115 1.993-1.115 3.453 0 1.46.515 2.582 1.544 3.368s2.4 1.179 4.116 1.179h14.235zm-8.49-32.084c-2.973 0-5.46.814-7.46 2.442-2.001 1.628-3.002 3.733-3.002 6.316 0 2.582 1 4.687 3.002 6.315 2 1.628 4.487 2.443 7.46 2.443s5.46-.815 7.46-2.443c2.002-1.628 3.002-3.733 3.002-6.315 0-2.583-1-4.688-3.001-6.316-2.001-1.628-4.488-2.442-7.46-2.442zm1.03 49.937c4.344 0 7.774-.688 10.29-2.064 2.515-1.375 3.773-3.045 3.773-5.01 0-1.628-.643-2.863-1.93-3.705-1.286-.842-3.473-1.264-6.56-1.264h-11.49c-2.63 0-4.66.464-6.09 1.39-1.428.926-2.143 2.203-2.143 3.832 0 2.133 1.2 3.803 3.602 5.01 2.4 1.207 5.917 1.81 10.547 1.81zM1197 124.126c0 1.572-.114 3.144-.343 4.716h-32.329c.4 4.267 1.844 7.579 4.33 9.937 2.488 2.358 5.703 3.537 9.648 3.537 3.144 0 5.76-.534 7.846-1.6 2.087-1.067 3.502-2.61 4.245-4.632l5.745 2.948c-1.715 2.975-4.001 5.249-6.86 6.82-2.858 1.573-6.517 2.359-10.976 2.359-6.46 0-11.534-1.937-15.221-5.811-3.688-3.874-5.531-9.235-5.531-16.084 0-6.85 1.758-12.21 5.274-16.084 3.515-3.874 8.503-5.81 14.963-5.81 4.002 0 7.46.87 10.376 2.61 2.916 1.74 5.117 4.098 6.603 7.073 1.487 2.976 2.23 6.316 2.23 10.021zm-19.209-13.81c-3.773 0-6.817 1.095-9.132 3.284-2.316 2.19-3.73 5.277-4.245 9.263h25.983c-.457-3.93-1.772-7.003-3.945-9.22-2.172-2.218-5.059-3.327-8.66-3.327z"></path></g></svg>