<?xml version="1.0" encoding="utf-8"?>
<!-- Generator: Adobe Illustrator 22.1.0, SVG Export Plug-In . SVG Version: 6.00 Build 0)  -->
<svg version="1.1" id="Слой_1" xmlns="http://www.w3.org/2000/svg" xmlns:xlink="http://www.w3.org/1999/xlink" x="0px" y="0px"
	 width="133px" height="36px" viewBox="0 0 133 36" style="enable-background:new 0 0 133 36;" xml:space="preserve">
<style type="text/css">
	.st0{fill:#FF680A;}
	.st1{fill:#FFFFFF;}
</style>
<path class="st0" d="M0,18C0,8.1,8.1,0,18,0h97c9.9,0,18,8.1,18,18c0,9.9-8.1,18-18,18H0V18z"/>
<g>
	<polygon class="st1" points="53.4,13 53.4,13 59.7,13 59.7,25.9 62.6,25.9 62.6,13 68.9,13 68.9,10.5 53.4,10.5 	"/>
	<path class="st1" d="M30.7,23.3h-1.2V10.4h-3v12.9h-9.3V10.4h-3v14c0,0.8,0.7,1.5,1.5,1.5h13.7v2.3h2.8v-3.3c0,0,0,0,0-0.1
		c0,0,0,0,0-0.1C32.1,23.9,31.4,23.3,30.7,23.3z"/>
	<path class="st1" d="M49.4,10.5c0,0-1-0.2-1.8,0.7l-9.7,9.9V10.4h-3v14.3c0,0.8,0.9,1.5,1.5,1.5c0.6,0,0.7-0.1,1-0.4
		c0.1,0,0.1-0.1,0.2-0.2l10.4-10.5v10.7h3V11.9C50.9,11.1,50.2,10.5,49.4,10.5z"/>
	<path class="st1" d="M115,20.9c-0.2,0.4-0.5,0.8-0.8,1.1c-0.5,0.5-1,0.9-1.6,1.1c-0.6,0.3-1.2,0.4-2,0.4c-0.7,0-1.4-0.1-2-0.4
		c-0.6-0.3-1.1-0.6-1.6-1.1c-0.5-0.5-0.9-1.1-1.1-1.7c-0.3-0.6-0.4-1.3-0.3-2.2c0-0.8,0.1-1.5,0.4-2.1c0.2-0.6,0.6-1.2,1.1-1.7
		c0.5-0.5,1-0.9,1.6-1.1c0.6-0.3,1.2-0.4,2-0.4c0.7,0,1.4,0.1,2,0.4c0.6,0.3,1.1,0.6,1.6,1.1l2.3-1.8l0-0.1
		c-0.8-0.8-1.6-1.4-2.6-1.8c-1-0.4-2-0.6-3.2-0.6c-1.1,0-2.2,0.2-3.2,0.6c-1,0.4-1.8,1-2.6,1.8c-0.8,0.8-1.3,1.6-1.7,2.6
		c-0.4,1-0.6,2-0.6,3.2c0,1.2,0.2,2.2,0.6,3.2c0.4,1,1,1.9,1.7,2.7c0.8,0.8,1.6,1.4,2.6,1.8c1,0.4,2,0.6,3.2,0.6
		c1.1,0,2.2-0.2,3.2-0.6c1-0.4,1.8-1,2.6-1.8c0.4-0.4,0.7-0.8,1-1.2L115,20.9z"/>
	<path class="st1" d="M99.4,10.4l-3.9,8.4l-4.9-8.4h-3.3L94,21.8c-0.6,1.1-1.7,1.8-3,1.8c-0.8,0-1.5-0.2-2.2-0.4v2.7
		c0.6,0.3,1.5,0.4,2.7,0.4c2.2,0,4.1-1.4,5.4-4.2l5.7-11.6H99.4z"/>
	<path class="st1" d="M79.7,10.4H73c-0.8,0-1.5,0.7-1.5,1.5v14h3V21h5.1c2,0,3.5-0.5,4.6-1.5c1.1-1,1.7-2.3,1.7-3.9
		c0-1.6-0.6-2.8-1.7-3.8C83.2,10.9,81.6,10.4,79.7,10.4z M79.4,18.4h-4.9V13h4.9c2.3,0,3.6,1,3.6,2.7C83,17.4,81.7,18.4,79.4,18.4z"
		/>
</g>
</svg>
