<svg width="195" height="65" style="fill:blue;" viewBox="0 0 421.75 89.81" xmlns="http://www.w3.org/2000/svg">
                <title>Эпицентр</title>
                <path d="M63.66,27.32V20.9A5.82,5.82,0,0,0,52,20.9v6.37A38.88,38.88,0,1,0,63.66,27.32Zm-6,70.22A31.79,31.79,0,0,1,52,34.45v7a5.81,5.81,0,0,0,2.35,4.68v5.85H41.27A4.27,4.27,0,0,0,37.59,54a4.32,4.32,0,0,0-.12,4.21L54,89.81a4.3,4.3,0,0,0,7.62,0L78.2,58.22a4.29,4.29,0,0,0-3.8-6.29H61.3V46.09a5.81,5.81,0,0,0,2.36-4.68V34.53A31.8,31.8,0,0,1,57.64,97.54Z" transform="translate(-18.74 -15.09)"></path>
                <polygon points="275.27 68.86 262.44 68.86 262.44 53.4 273.36 53.4 273.36 39.93 262.44 39.93 262.44 26.61 274.06 26.61 274.06 12.47 245.1 12.47 245.1 83 275.27 83 275.27 68.86 275.27 68.86"></polygon>
                <polygon points="143.68 26.56 149.06 26.56 149.06 82.98 166.39 82.98 166.39 12.45 126.34 12.45 126.34 82.98 143.68 82.98 143.68 26.56 143.68 26.56"></polygon>
                <polygon points="120.59 68.94 107.69 68.94 107.69 53.39 118.67 53.39 118.67 39.95 107.69 39.95 107.69 26.5 119.47 26.5 119.47 12.45 90.17 12.45 90.17 82.98 120.59 82.98 120.59 68.94 120.59 68.94"></polygon>
                <polygon points="298.36 53.48 303.74 53.48 303.74 83.08 321.08 83.08 321.08 12.54 303.74 12.54 303.74 37.86 298.36 37.86 298.36 12.54 281.02 12.54 281.02 83.08 298.36 83.08 298.36 53.48 298.36 53.48"></polygon>
                <polygon points="337.06 83.04 354.4 83.04 354.4 26.64 364.8 26.64 364.8 12.51 326.83 12.51 326.83 26.64 337.06 26.64 337.06 83.04 337.06 83.04"></polygon>
                <polygon points="189.48 12.45 172.15 12.45 172.15 82.98 189.48 82.98 189.48 12.45 189.48 12.45"></polygon>
                <polygon points="239.35 68.83 235.68 68.83 235.68 12.47 218.17 12.47 218.17 68.83 212.75 68.83 212.75 12.47 195.24 12.47 195.24 82.85 227.24 82.85 227.24 89.81 239.35 89.81 239.35 68.83 239.35 68.83"></polygon>
                <path d="M426.09,37.51a11.72,11.72,0,0,0-2.59-5.38,12.12,12.12,0,0,0-5.76-3.39,39.07,39.07,0,0,0-10.9-1.18H389.3V98.1h17.34V69.65h4.7A22.05,22.05,0,0,0,420.59,68a9.23,9.23,0,0,0,4.86-4.74q1.31-3.09,1.31-9.84V47.28A51.65,51.65,0,0,0,426.09,37.51ZM408.33,56.27a9.14,9.14,0,1,1,9.19-9.15A9.18,9.18,0,0,1,408.33,56.27Z" transform="translate(-18.74 -15.09)"></path>
                <path d="M408.33,40.18a6.95,6.95,0,1,0,7,6.95A7,7,0,0,0,408.33,40.18Zm1.29,11.5-2-3.8v3.8h-2.92V42.58h2.92v3.91l1.86-3.91h3.35l-2.49,4.5,2.84,4.61h-3.58Z" transform="translate(-18.74 -15.09)"></path>
                <path d="M437.79,35.3l-0.93-1.46a4.38,4.38,0,0,0-.55-0.68,1.8,1.8,0,0,0,.64-0.41,1.65,1.65,0,0,0,.45-1.17,1.83,1.83,0,0,0-.27-1A1.51,1.51,0,0,0,436.4,30a3.45,3.45,0,0,0-1.2-.16H432.5v6h1.33V33.4h0.51a1.73,1.73,0,0,1,.33,0,0.81,0.81,0,0,1,.22.1,1.4,1.4,0,0,1,.28.29c0.13,0.16.29,0.4,0.5,0.72l0.71,1.11,0.09,0.14h1.63ZM436,31.88a0.5,0.5,0,0,1-.26.2,1.94,1.94,0,0,1-.65.08h-1.22V31h1.39a1.06,1.06,0,0,1,.67.16,0.5,0.5,0,0,1,.17.39A0.55,0.55,0,0,1,436,31.88Z" transform="translate(-18.74 -15.09)"></path>
                <path d="M439.37,32.81a4.4,4.4,0,1,1-4.4-4.4A4.41,4.41,0,0,1,439.37,32.81ZM435,27.28a5.53,5.53,0,1,0,5.53,5.53A5.54,5.54,0,0,0,435,27.28Z" transform="translate(-18.74 -15.09)"></path>
              </svg>