<svg class="c-header-logo__svg" xmlns="http://www.w3.org/2000/svg" viewBox="0 0 671.3 80"><path d="M65.9 58.2C60.6 66 51.7 70.7 42.3 70.8c-13.6 0-25.6-10-28.5-23.7l-.1-.5h66.5c.2-1.9.3-3.8.3-5.6v-.3C80.5 19 63.4 1.3 42.2 1.3S4 18.9 4 40.6 21.1 80 42.3 80c14.4 0 27.4-8.2 34-21.4l1-1.9H66.9c-.3.5-.7 1-1 1.5zM13.2 36.8c1.9-15 14.4-26.3 28.9-26.3S69.2 21.8 71 36.8l.1.5h-58v-.5zM123.3 80.1c-4.1 0-8.2-.8-12.1-2.3-3.7-1.4-7-3.6-9.8-6.4-2.9-2.8-5.1-6.2-6.5-9.9-1.5-4.1-2.3-8.4-2.2-12.8V2.8h8.8v45.1c-.1 3.3.4 6.7 1.6 9.8 2.1 5.5 6.3 9.9 11.7 12.2 5.5 2.2 11.6 2.2 17 0 2.6-1.1 5-2.7 7-4.8 2.1-2.1 3.7-4.7 4.8-7.4 1.2-3.1 1.9-6.5 1.9-9.8V2.8h8.8v45.9c0 4.4-.9 8.7-2.6 12.8-3.1 7.4-9 13.3-16.5 16.4-3.7 1.4-7.8 2.2-11.9 2.2zM166.9 78V34.6c0-3.2.4-6.3 1.1-9.4.9-4 2.7-7.7 5.1-11 3-4 7-7.2 11.6-9.2 5.5-2.5 12.3-3.8 20.2-3.8h1.5v9.4h-1.5c-5-.1-9.9.7-14.6 2.3-3.3 1.1-6.3 3.1-8.6 5.6-1.9 2.2-3.4 4.8-4.2 7.6-.8 2.7-1.2 5.6-1.2 8.4V78h-9.4zM348.6 78V38.4c.1-2.9-.3-5.8-1.3-8.5-.9-2.3-2.2-4.4-4-6.2-1.6-1.7-3.5-3-5.6-3.9-4.5-1.9-9.6-1.9-14.1 0-2.2.9-4.1 2.2-5.7 3.9-1.7 1.8-3.1 3.9-4 6.2-1.1 2.7-1.6 5.5-1.7 8.4v39.6h-17.5V37.5c0-5 1-10 2.9-14.7 1.7-4.3 4.3-8.3 7.6-11.6 3.3-3.2 7.1-5.8 11.4-7.5 8.9-3.5 18.8-3.6 27.7-.1 4.3 1.7 8.2 4.3 11.4 7.5 3.3 3.3 5.9 7.3 7.6 11.6 1.8 4.7 2.6 9.7 2.5 14.7v40.3h-17.2v.3zM412.8 80c-21.1 0-38.3-17.6-38.3-39.3s17.1-39.4 38.3-39.4c21.1 0 38.2 17.6 38.2 39.4 0 2-.2 4.1-.4 6l-.1.6h-59.7l.3.8c3.6 12 16.1 18.8 28.1 15.2 3-.9 5.9-2.4 8.3-4.5 0 0 1.1-1 1.3-1.1h18.6l-.5 1.1c-6.4 12.9-19.6 21.1-34.1 21.2zm0-62.9c-10 .1-18.8 6.6-21.7 16.2l-.3.8h44l-.3-.8c-2.9-9.7-11.7-16.2-21.7-16.2zM457 3.2v-.5h18.9c2.3 18.1 8.2 46.9 13.4 60 5.5-13 11.8-41.8 14.1-60h15.8c2.4 18.1 8.6 45.7 14.2 60 5.2-14.2 11-41.8 13.4-60h18.8v.5C561.2 31.5 553 60.7 546 78h-23.6c-4.9-11.9-8.6-24.3-11.1-37-2.3 13-7.4 28.3-11 37h-23.5c-8.3-18.9-17.3-50.7-19.8-74.8zM573.5 74.7V60.4h.8c6.6 1.8 13.3 2.9 20.1 3.1h3.9c6.1 0 10.8-1.9 10.8-8.1 0-4.7-4.1-6.5-8.5-7.7L589 44.6c-8.5-2.2-15.5-8.1-15.5-20.9 0-15.1 12.4-21.3 27.5-21.3h3.9c4.7 0 14 1.2 18.2 2.8v14.3h-.8c-5.7-1.3-11.6-2.1-17.4-2.3h-3.5c-5.5 0-10.1 1.1-10.1 6.5 0 4.3 3.2 5.9 7 6.9l11.6 3.2c11.2 3 17 9.6 17 21.6 0 16.6-12 22.9-28.6 22.9h-3.9c-7.1-.3-14.2-1.5-20.9-3.6z"></path><circle cx="653.4" cy="62.3" r="15.9"></circle><path d="M247.7 1.4c-21.2 0-38.5 17.6-38.5 39.4s17.2 39.4 38.5 39.4 38.5-17.6 38.5-39.4-17.3-39.4-38.5-39.4zm0 68.1c-14.8 0-26.9-12.9-26.9-28.6s12.1-28.6 26.9-28.6c14.8 0 26.9 12.9 26.9 28.6s-12 28.6-26.9 28.6z"></path></svg>