<?xml version="1.0" encoding="UTF-8" standalone="no"?>
<svg width="628px" height="73px" viewBox="0 0 628 73" version="1.1" xmlns="http://www.w3.org/2000/svg" xmlns:xlink="http://www.w3.org/1999/xlink">
    <title>FINTECHERS</title>
    <desc>Created with Sketch.</desc>
    <defs></defs>
    <g id="Page-1" stroke="none" stroke-width="1" fill="none" fill-rule="evenodd">
        <g id="Artboard" transform="translate(-1.000000, -33.000000)" fill="purple">
            <path d="M27.2722209,51.2 L58.4722209,51.2 L60.8722209,34.2 L11.5722209,34.2 L1.6722209,105 L19.7722209,105 L23.1722209,80.6 L50.4722209,80.6 L52.7722209,63.9 L25.4722209,63.9 L27.2722209,51.2 Z M92.7277767,34.2 L74.8277767,34.2 L64.9277767,105 L82.8277767,105 L92.7277767,34.2 Z M99.5833325,105 L117.483333,105 L121.383333,76.7 L121.183333,63 L121.583333,62.9 L125.783333,77.1 L137.883333,105 L155.983333,105 L165.883333,34.2 L148.083333,34.2 L143.583333,66.3 L143.783333,78.5 L143.383333,78.6 L139.383333,64.4 L126.483333,34.2 L109.483333,34.2 L99.5833325,105 Z M232.238888,50.5 L234.638888,34.1 L178.338888,34.1 L175.938888,50.5 L195.038888,50.5 L187.538888,105 L205.638888,105 L213.138888,50.5 L232.238888,50.5 Z M262.794444,51.1 L293.994444,51.1 L296.394444,34.2 L247.094444,34.2 L237.194444,105 L286.494444,105 L288.794444,88.1 L257.594444,88.1 L259.094444,77.5 L287.794444,77.5 L289.994444,61.6 L261.294444,61.6 L262.794444,51.1 Z M340.75,82.9 C338.35,87.4 333.75,89.3 329.65,89.3 C324.65,89.3 320.25,86.4 320.95,81.8 L324.35,57.4 C325.05,52.6 330.15,49.8 335.25,49.7 C339.45,49.7 343.65,51.4 345.25,55.4 L360.65,49.5 C356.75,36.9 346.75,33.2 338.05,33.2 C323.85,33.2 308.65,41.4 306.45,57.4 L303.05,81.8 C300.85,97.9 313.65,106 327.55,106 C336.45,106 346.65,102.5 355.35,90.1 L340.75,82.9 Z M386.805556,78.3 L407.205556,78.3 L403.505556,105 L421.505556,105 L431.405556,34.2 L413.405556,34.2 L409.605556,61 L389.205556,61 L393.005556,34.2 L375.005556,34.2 L365.105556,105 L383.105556,105 L386.805556,78.3 Z M463.861112,51.1 L495.061112,51.1 L497.461112,34.2 L448.161112,34.2 L438.261112,105 L487.561112,105 L489.861112,88.1 L458.661112,88.1 L460.161112,77.5 L488.861112,77.5 L491.061112,61.6 L462.361112,61.6 L463.861112,51.1 Z M541.416667,105 L563.716667,105 L546.716667,80.7 C556.416667,76.1 562.016667,71.7 563.816667,58.6 C565.816667,42 555.416667,34.2 540.816667,34.2 L512.516667,34.2 L502.616667,105 L520.716667,105 L523.816667,82.5 L527.016667,82.5 L541.416667,105 Z M526.016667,67.1 L528.316667,50.9 L538.816667,50.9 C544.116667,50.9 546.216667,54.6 545.716667,58.9 C545.216667,63 542.016667,67.1 536.516667,67.1 L526.016667,67.1 Z M570.172223,93.2 C575.572223,101.7 586.072223,106 594.572223,106 C609.872223,106 621.872223,99.1 624.472223,85.3 C627.772223,67.7 615.772223,63 603.472223,60.7 C598.072223,59.5 594.472223,57.7 594.972223,53.6 C595.372223,50 599.172223,48.3 603.672223,48.4 C607.772223,48.5 612.472223,50.1 615.472223,53.5 L628.472223,44.5 C622.372223,35.6 614.372223,33.2 605.772223,33.2 C592.772223,33.2 579.972223,38.3 577.272223,52.8 C574.772223,66.2 584.772223,75.1 595.872223,76.9 C601.572223,77.7 607.772223,79.6 606.972223,84 C606.272223,87.7 602.072223,89.4 597.272223,89.4 C591.972223,89.4 586.072223,87.1 582.972223,82.6 L570.172223,93.2 Z" id="FINTECHERS"></path>
        </g>
    </g>
</svg>