<svg xmlns="http://www.w3.org/2000/svg" id="Слой_1" width="534.453" height="243.2"><style id="style2">.st0{fill:#148eff}</style><path class="st0" d="M271.7 175.8c-13.6 0-26.1-5.1-35.6-13.4 0 .1 0 .1-.1.2 9.6 8.4 22.1 13.6 35.7 13.6 30.1 0 54.7-24.4 54.7-54.5v-.2c-.1 30-24.6 54.3-54.7 54.3z" id="path4" fill="#148eff"/><path id="polygon6" fill="#148eff" stroke="#148eff" stroke-width="1.106" stroke-miterlimit="10" d="M512 46.1v151.1h21.9V46.1H516z"/><g id="g12" transform="translate(-228.1 -136.4)"><path class="st0" d="M689 333.8L660.1 286h-31.7v47.8h-22.5V181.5h62.2c25.7 0 46.6 23.5 46.6 52.5 0 21.6-12 40.6-31.3 49.6l32.5 50.2zm-22.6-69.3c13.9 0 25.7-13.7 25.7-30 0-15.6-11.8-28.8-25.7-28.8h-37.6v58.7h37.6z" id="path8" fill="#148eff"/><path class="st0" d="M668.1 181.8c25.5 0 46.4 23.2 46.4 52.2 0 22.4-13 41-31.5 49.5l32.4 50H689.1l-28.9-47.8h-32.1v47.8h-21.9V181.8H668.1m-39.6 82.9h37.8c13.8 0 25.9-13.4 25.9-30.3 0-15.9-12.1-29-25.9-29h-37.8v59.3m39.6-83.5h-62.4v152.9h23.1v-47.9H660l28.7 47.6.2.3H716.5l-.6-.9-32-49.5c19.3-9.2 31.2-28.2 31.2-49.8-.1-29-21.1-52.7-47-52.7zm-39 24.8h37.3c13.8 0 25.4 13 25.4 28.5 0 16.1-11.6 29.7-25.4 29.7h-37.3z" id="path10" fill="#148eff"/></g><g id="g18" transform="translate(-228.1 -136.4)"><path d="M499.8 202.8c-29.9 0-54.5 25-54.5 54.9 0 16.4 7.4 31.1 18.8 41.1 0 .1 0 .1-.1.2 9.6 8.4 22.1 13.6 35.7 13.6 30.1 0 54.7-24.4 54.7-54.5v-.2-.2c.1-29.8-24.5-54.9-54.6-54.9z" id="path14" fill="none"/><path class="st0" d="M575.6 257.9c-.1-42-33.7-75.8-75.7-75.8-17 0-32.5 5.6-45 14.9 0-.1-.1-.2-.1-.2-21.1-36.1-60.2-60.4-105.1-60.4-67.2 0-121.6 54.5-121.6 121.6 0 67.2 54.5 121.6 121.6 121.6 45 0 84.2-24.4 105.3-60.7 12.5 9.2 28 14.7 45 14.7 42.1 0 75.7-33.5 75.7-75.5-.1-.1-.1-.1-.1-.2zM405 207.1l-42-.1v126.4h-27V207l-42 .1v-25.7h111zm149.5 51c0 30.1-24.6 54.5-54.7 54.5-13.6 0-26.1-5.2-35.7-13.6 0-.1 0-.1.1-.2-11.5-10-18.8-24.7-18.8-41.1 0-29.9 24.6-54.9 54.5-54.9 30.1 0 54.7 25 54.7 54.9v.2c-.1.1-.1.1-.1.2z" id="path16" fill="#148eff"/></g></svg>