<?xml version="1.0" encoding="utf-8"?>
<!-- Generator: Adobe Illustrator 17.0.0, SVG Export Plug-In . SVG Version: 6.00 Build 0)  -->
<!DOCTYPE svg PUBLIC "-//W3C//DTD SVG 1.1//EN" "http://www.w3.org/Graphics/SVG/1.1/DTD/svg11.dtd">
<svg version="1.1" id="Layer_1" xmlns="http://www.w3.org/2000/svg" xmlns:xlink="http://www.w3.org/1999/xlink" x="0px" y="0px"
	 width="90px" height="45px" fill="blue" viewBox="0 0 90 45" enable-background="new 0 0 90 45" xml:space="preserve">
<path d="M65.901,16.54h8.597L64.316,29.86h-8.601L65.901,16.54z M65.254,15.239L54.431,29.402
	c-0.259,0.338-0.301,0.765-0.112,1.142c0.183,0.373,0.57,0.615,0.98,0.615h9.662l10.911-14.271c0.238-0.32,0.273-0.735,0.103-1.085
	c-0.175-0.349-0.53-0.564-0.93-0.564L65.254,15.239L65.254,15.239z M34.345,8.316C34.4,8.222,34.504,8.16,34.619,8.16h5.638
	l0.81-4.655c0.027-0.144,0.154-0.246,0.305-0.246l5.277-0.004c0.097,0,0.175,0.029,0.231,0.092c0.058,0.072,0.086,0.168,0.073,0.253
	l-0.525,3.012l24.808,0.018c0.134,0,0.23,0.081,0.277,0.159c0.029,0.058,0.068,0.175-0.013,0.285l-2.24,2.925l18.386-0.005
	c0.107,0,0.183,0.068,0.214,0.127c0.029,0.043,0.053,0.133-0.002,0.216L72.577,30.344c-0.174,0.218-0.166,0.772-0.045,1.008
	c0.126,0.238,0.562,0.578,0.835,0.578l10.748,0.012c0.125,0,0.198,0.064,0.231,0.103c0.058,0.067,0.084,0.157,0.07,0.244
	l-0.817,4.675c-0.026,0.142-0.154,0.245-0.305,0.245H42.401l-0.672-0.004c0.05,0.231,0.07,0.472,0.07,0.717
	c0,2.103-1.704,3.808-3.81,3.808c-2.105,0-3.81-1.705-3.81-3.808c0-2.104,1.705-3.807,3.81-3.807c1.437,0,2.69,0.796,3.342,1.972
	l16.666-21.85c0.268-0.564,0.134-0.766-0.01-1.099c-0.107-0.251-0.509-0.509-0.948-0.504H45.373l-2.981,17.022
	c-0.029,0.134-0.157,0.227-0.3,0.227h-5.28c-0.123,0-0.198-0.066-0.233-0.105c-0.032-0.038-0.09-0.123-0.068-0.244l3.238-18.476
	L26.579,36.878c-0.118,0.207-0.338,0.341-0.585,0.341l-4.486,0.022c-0.16,0-0.292-0.114-0.306-0.251l-1.237-18.756l-9.73,18.648
	c-0.116,0.205-0.341,0.339-0.582,0.339l-4.55-0.003c-0.156,0-0.289-0.115-0.302-0.263L1.835,8.485
	c-0.007-0.09,0.024-0.177,0.077-0.237c0.055-0.055,0.135-0.086,0.23-0.086h6.116c0.167,0,0.307,0.136,0.307,0.314l0.917,18.574
	l8.994-18.728c0.049-0.097,0.157-0.16,0.272-0.16l5.575-0.024c0.154,0,0.292,0.117,0.301,0.253l0.906,18.717L34.345,8.316z
	 M41.112,1.955c-0.63,0-1.165,0.45-1.278,1.074l-0.672,3.828H34.42c-0.484,0-0.917,0.261-1.163,0.713L26.581,21.81L25.919,8.044
	c-0.057-0.667-0.621-1.186-1.295-1.186h-6.07c-0.485,0-0.932,0.27-1.163,0.716l-6.864,14.293L9.85,8.155
	c0-0.716-0.584-1.297-1.298-1.297H1.8c-0.369,0-0.711,0.144-0.959,0.405c-0.24,0.264-0.362,0.631-0.338,1.013L3.53,37.353
	c0.073,0.658,0.628,1.155,1.293,1.155l5.019,0.002c0.616,0,1.177-0.336,1.467-0.882l7.665-14.685l0.945,14.411
	c0.076,0.658,0.63,1.155,1.29,1.155l4.982,0.002c0.613,0,1.18-0.34,1.469-0.889l9.315-18.263l-1.804,10.301
	c-0.068,0.379,0.038,0.765,0.282,1.065c0.246,0.292,0.61,0.462,0.994,0.462h5.904c0.613,0,1.135-0.427,1.272-1.043l2.84-16.21
	h10.143L41.279,33.993c-0.917-0.767-2.078-1.186-3.279-1.186c-2.819,0-5.12,2.297-5.12,5.118c0,2.823,2.301,5.119,5.12,5.119
	c2.59,0,4.794-1.979,5.092-4.534l40.464-0.002c0.637,0,1.173-0.453,1.277-1.076l0.926-5.268c0.064-0.379-0.043-0.767-0.288-1.058
	c-0.244-0.291-0.606-0.458-0.993-0.458l-10.494-0.01l15.3-20.022c0.26-0.388,0.284-0.856,0.068-1.259
	c-0.21-0.407-0.631-0.663-1.091-0.663H71.89l1.038-1.356c0.272-0.407,0.299-0.902,0.07-1.334c-0.229-0.424-0.667-0.694-1.144-0.694
	H47.973L48.3,3.474c0.062-0.376-0.052-0.774-0.302-1.069c-0.244-0.291-0.592-0.45-0.983-0.45
	C47.015,1.955,41.112,1.955,41.112,1.955z"/>
</svg>
